<svg width="599" height="671" viewBox="0 0 599 671" fill="none" xmlns="http://www.w3.org/2000/svg">
<path d="M57.2694 428.271V454.76C57.2715 460.385 58.6324 465.926 61.2365 470.912C63.8405 475.901 67.6102 480.183 72.2251 483.401L177.215 378.407L148.108 349.3C147.329 348.522 146.405 347.905 145.387 347.483C144.37 347.061 143.28 346.844 142.178 346.844C141.077 346.844 139.987 347.061 138.97 347.483C137.952 347.905 137.028 348.522 136.249 349.3L57.2694 428.271Z" fill="url(#paint0_linear)"/>
<path d="M142.169 314.932C145.689 314.923 149.176 315.61 152.427 316.959C155.679 318.306 158.63 320.286 161.111 322.78L196.965 358.634L270.579 285.02C278.214 277.397 288.563 273.115 299.352 273.115C310.141 273.115 320.49 277.397 328.125 285.02L430.482 387.377L462.118 355.741C467.146 350.725 473.955 347.908 481.06 347.908C488.161 347.908 494.973 350.725 499.999 355.741L541.438 397.214V215.56C541.438 209.426 539.823 203.401 536.753 198.089C533.686 192.777 529.275 188.366 523.963 185.299L316.824 65.7052C311.512 62.6377 305.483 61.0228 299.349 61.0228C293.214 61.0228 287.187 62.6377 281.874 65.7052L74.7319 185.299C69.4198 188.366 65.0083 192.777 61.9409 198.089C58.8735 203.401 57.2583 209.426 57.2571 215.56V388.735L123.216 322.777C125.699 320.28 128.653 318.3 131.906 316.956C135.16 315.61 138.648 314.92 142.169 314.932Z" fill="url(#paint1_linear)"/>
<path d="M450.244 407.156L526.47 483.397C531.085 480.18 534.855 475.895 537.458 470.909C540.061 465.923 541.42 460.382 541.423 454.757V436.74L486.965 382.282C485.392 380.709 483.259 379.826 481.035 379.826C478.809 379.826 476.676 380.709 475.103 382.282L450.244 407.156Z" fill="url(#paint2_linear)"/>
<path d="M308.358 304.802C305.968 302.416 302.732 301.078 299.356 301.078C295.981 301.078 292.744 302.416 290.355 304.802L97.1808 497.965L281.871 604.603C287.184 607.67 293.211 609.285 299.346 609.285C305.48 609.285 311.509 607.67 316.821 604.603L501.511 497.965L308.358 304.802Z" fill="url(#paint3_linear)"/>
<path d="M299.355 28.8997C306.206 28.8978 312.94 30.7008 318.873 34.127L550.29 167.737C556.225 171.163 561.151 176.091 564.577 182.026C568.003 187.96 569.807 194.692 569.807 201.544V468.764C569.807 475.615 568.003 482.346 564.577 488.281C561.151 494.214 556.225 499.143 550.29 502.569L318.873 636.178C312.937 639.604 306.206 641.409 299.353 641.409C292.501 641.409 285.769 639.604 279.834 636.178L48.4172 502.569C42.483 499.143 37.5551 494.214 34.1291 488.281C30.7032 482.346 28.8995 475.615 28.8997 468.764V201.544C28.8996 194.692 30.7032 187.96 34.1291 182.026C37.5554 176.091 42.483 171.163 48.4172 167.737L279.834 34.127C285.77 30.7011 292.502 28.8981 299.355 28.8997ZM299.355 0C287.431 0.00465688 275.717 3.1435 265.388 9.10195L33.9674 142.712C23.6528 148.689 15.0872 157.268 9.12656 167.592C3.16595 177.916 0.0189391 189.623 0 201.544V468.764C0.0195486 480.686 3.16718 492.394 9.12831 502.716C15.0895 513.041 23.6555 521.619 33.9704 527.597L265.388 661.206C275.716 667.169 287.43 670.305 299.355 670.305C311.28 670.305 322.994 667.169 333.322 661.206L564.74 527.597C575.056 521.622 583.624 513.041 589.587 502.719C595.549 492.394 598.698 480.686 598.719 468.764V201.544C598.701 189.623 595.552 177.916 589.593 167.592C583.63 157.268 575.065 148.689 564.752 142.712L333.334 9.10195C323.006 3.14389 311.292 0.00508067 299.367 0H299.355Z" fill="url(#paint4_linear)"/>
<defs>
<linearGradient id="paint0_linear" x1="299.348" y1="68.1503" x2="299.348" y2="959.078" gradientUnits="userSpaceOnUse">
<stop offset="0.004" stop-color="#CE9FFC"/>
<stop offset="1" stop-color="#7367F0"/>
</linearGradient>
<linearGradient id="paint1_linear" x1="299.348" y1="68.1503" x2="299.348" y2="959.078" gradientUnits="userSpaceOnUse">
<stop offset="0.004" stop-color="#CE9FFC"/>
<stop offset="1" stop-color="#7367F0"/>
</linearGradient>
<linearGradient id="paint2_linear" x1="299.348" y1="68.1503" x2="299.348" y2="959.078" gradientUnits="userSpaceOnUse">
<stop offset="0.004" stop-color="#CE9FFC"/>
<stop offset="1" stop-color="#7367F0"/>
</linearGradient>
<linearGradient id="paint3_linear" x1="299.348" y1="68.1503" x2="299.348" y2="959.078" gradientUnits="userSpaceOnUse">
<stop offset="0.004" stop-color="#CE9FFC"/>
<stop offset="1" stop-color="#7367F0"/>
</linearGradient>
<linearGradient id="paint4_linear" x1="299.359" y1="8.71401" x2="299.359" y2="1097.96" gradientUnits="userSpaceOnUse">
<stop offset="0.004" stop-color="#CE9FFC"/>
<stop offset="1" stop-color="#7367F0"/>
</linearGradient>
</defs>
</svg>
