<svg version="1" xmlns="http://www.w3.org/2000/svg" width="894.667" height="894.667" viewBox="0 0 671.000000 671.000000"><path d="M321.5 1.5c-6.5 1.4-13 3.8-18.5 6.8-3.5 1.9-57.2 32.9-82.5 47.5-7.1 4.2-17.3 10-22.5 13-5.2 3-10.8 6.2-12.5 7.2-21 12.2-25.8 15-26.2 15-.2 0-2 1.1-4.1 2.4-3.5 2.2-25.3 14.9-33.5 19.5-2.1 1.2-9.8 5.6-17 9.8-7.3 4.2-14.5 8.3-16 9.2-1.6.9-3.6 2-4.6 2.6-.9.5-5.9 3.5-11.1 6.5-13.8 8-23.3 17.8-29.4 30-8 16.5-7.6 5.8-7.3 167l.2 143.5 2.7 8.1c4.2 12.1 12.7 24.4 22.3 32 3.3 2.7 27.1 17.4 28 17.4.2 0 7 3.9 15.2 8.6 8.1 4.8 16.8 9.8 19.2 11.2 7.8 4.3 14.5 8.2 16.1 9.2.8.5 10.1 5.8 20.5 11.8 10.5 6.1 25.8 14.9 34 19.7 8.3 4.8 17 9.9 19.5 11.3 2.5 1.4 10.8 6.2 18.5 10.7 7.8 4.5 14.8 8.4 15.5 8.8.8.4 3.1 1.7 5 2.8 9.7 5.9 48.1 27.9 51.9 29.9 12.4 6.3 27.6 8.7 41.3 6.4 2.1-.3 4-.6 4.3-.5.2 0 3.4-1 6.9-2.3 5.7-2.1 14.3-6.7 35.6-19.1 3.6-2 8.1-4.6 10-5.7 1.9-1.1 7.6-4.4 12.5-7.3 5-2.9 11-6.3 13.5-7.7 2.5-1.4 8.6-4.9 13.5-7.8 5-2.9 11-6.4 13.5-7.7 2.5-1.4 6.5-3.8 9-5.3s13.7-8.1 25-14.5c25.8-14.8 24.8-14.2 35.5-20.5 5-2.9 10.4-6 12-7 24.8-14.1 63-36.3 66.4-38.4 12.9-8.2 22.6-21.3 28.2-38.1l2.3-7 .2-142.8c.2-152.1.3-148.3-4.6-160.8-4.5-11.3-13.6-23.2-23-30.1-1.9-1.4-26.9-16-55.5-32.5s-54.4-31.4-57.3-33.2c-2.9-1.7-5.6-3.1-5.9-3.1-.4 0-1.4-.6-2.2-1.4-.9-.8-3.8-2.6-6.6-4.1-2.7-1.4-6.4-3.4-8-4.4-1.7-1-12-7-23-13.3-11-6.4-21.6-12.5-23.5-13.7-1.9-1.1-4.2-2.4-5-2.8-.8-.4-4.3-2.4-7.8-4.5-3.4-2.1-6.4-3.8-6.5-3.8-.2 0-8.8-4.9-19.2-11-10.4-6-22.2-12.3-26.1-14-11.6-4.8-26.3-6.1-38.9-3.5zM351 32.3c3 1.4 7.8 3.9 10.5 5.6 4.6 2.7 16.5 9.6 25.4 14.6 2 1.2 6.8 3.9 10.6 6.2C416.7 69.9 428.9 77 433 79.3c2.5 1.4 16.9 9.7 32 18.4 15.1 8.8 49.3 28.5 76 43.9 53.3 30.6 55.7 32.4 61.3 44.2l3.2 6.7.1 139.9c.1 76.9-.3 141.7-.7 144.1-1.3 7.1-5 13.7-10.9 19.5-4.5 4.4-14.3 10.6-51.5 31.9-48.5 27.9-93.6 54-98.9 57.2-1.7 1-3.8 2.2-4.6 2.6-.8.4-5.3 2.9-10 5.6-4.7 2.8-18.8 10.9-31.5 18.2-12.6 7.3-28.1 16.3-34.4 19.9-6.3 3.6-13.5 7.3-16 8.2-5.9 2.1-17.3 2-23.6-.1-2.8-1-18-9.3-34-18.5-59-34.1-65.8-38-66.6-38-.5 0-.9-.5-.9-1 0-.6-.4-1-.9-1s-7.5-3.8-15.6-8.5c-8-4.7-16.6-9.6-19.1-11-2.4-1.4-11.3-6.5-19.7-11.4-20.9-12.2-46.3-26.8-51.7-29.9-2.5-1.3-7-3.9-10-5.7-3-1.8-7.1-4.2-9-5.3-17.5-9.8-22.3-14-27.2-24l-3.3-6.7v-142c0-78.1.3-143.2.7-144.7 2.9-11.9 10.3-20 25.8-28.5 3-1.7 8.4-4.7 12-6.8 24.2-14.1 37.1-21.6 41-23.7 2.5-1.4 8.6-4.9 13.5-7.8 5-2.9 10.8-6.3 13-7.5 2.2-1.3 8.6-5 14.3-8.4 5.7-3.4 10.5-6.1 10.7-6.1.2 0 3.7-2 7.7-4.4 4.1-2.4 18-10.4 30.9-17.8 12.9-7.4 28.5-16.5 34.8-20.2 6.2-3.6 11.5-6.6 11.6-6.6.2 0 3.4-1.9 7.1-4.1 3.8-2.3 8.7-5.2 10.9-6.4 2.2-1.2 7.4-4.2 11.5-6.6 11-6.4 15.9-7.9 26-7.5 6.7.2 9.7.9 14 2.9z"/><path d="M324.2 63c-2.6.9-13.5 6.8-24.2 13-18.2 10.6-40.4 23.4-61.5 35.5-4.9 2.9-15.1 8.7-22.5 13-64 37.1-97.3 56.2-101.4 58.4-7.9 4.2-14.2 10.5-17.8 17.9l-3.3 6.7-.2 90.2c0 49.7.1 90.3.3 90.3.2 0 16.1-15.7 35.2-34.8 33.2-33.2 35.1-34.9 40.5-36.6 6.5-2.1 14-1.8 20.1.8 2.6 1.1 10.7 8.4 23.8 21.3l19.8 19.7 39.3-39.1c36-35.9 39.8-39.3 46.1-42.3 11.8-5.5 26-4.9 37.4 1.7 2.4 1.4 27.9 26 57.3 55.4 29.1 29.1 53.1 52.9 53.3 52.9.2 0 8.2-7.8 17.8-17.3 9.5-9.5 19.2-18.2 21.3-19.2 5.9-3 17.5-2.8 23.5.3 2.8 1.5 12.3 10.2 25.1 23 11.3 11.4 21.2 21.2 22 21.9 1.2 1 1.4-11.8 1.3-92.5 0-73.8-.3-94.6-1.3-97.7-3.5-10.7-9.2-16.3-27.3-26.7-7.3-4.2-24.5-14.1-38.3-22-63.1-36.5-131.4-75.9-145.5-84-8.5-4.9-17.8-9.6-20.7-10.4-6.3-1.8-13.8-1.6-20.1.6z"/><path d="M331.3 301.7c-1.9.4-197.3 194.6-197.3 196.2 0 .5 32.1 19.3 54.4 31.9 2.2 1.3 12.9 7.5 23.6 13.7 10.7 6.2 21.8 12.5 24.5 14 2.8 1.6 9.7 5.6 15.5 9 9.2 5.5 15.3 9 22.5 12.9 1.1.6 2.2 1.3 2.5 1.6.3.3 1.4 1 2.5 1.6 7.1 3.9 32.8 18.6 35.5 20.4 8.1 5.2 19 7.2 28.4 5.1 5.1-1.1 9.2-3.4 57.1-31.1 12.7-7.3 24.6-14.1 26.5-15.2 1.9-1.1 19.3-11.1 38.5-22.3 19.3-11.1 43.1-24.8 53-30.5 9.9-5.7 18.2-10.5 18.5-10.7.7-.6-193.3-194.3-196.2-195.9-2.6-1.4-5.1-1.6-9.5-.7zM133.8 387.8L93 428.5l.3 17c.3 13.5.8 17.9 2.2 21.5 2 5.1 7.4 12.5 10.6 14.8 2 1.4 4.1-.5 54.6-51l52.5-52.5-14.8-14.7c-8.2-8.1-15.6-15.2-16.6-15.7-5.3-2.9-5.3-2.8-48 39.9zM500.3 393.2c-7.3 7.3-13.3 13.6-13.3 14 0 1.1 74.8 75.8 75.9 75.8 1.7 0 9.3-9.2 11.3-13.6 2.7-6.2 3-8.2 3.1-21.2l.1-11.3-28.5-28.5c-26.1-26-28.8-28.4-31.9-28.4-3 0-4.8 1.5-16.7 13.2z"/></svg>